{"title":"Iron Man 3 2013 CAM AAC x264-SSDD","uid":8423552,"size":578019649,"categoryP":"video","categoryS":"movies","magnet":"?xt=urn:btih:3391cf41b25565ab9199630c8eda5053877f9957&amp;dn=Iron+Man+3+2013+CAM+AAC+x264-SSDD&amp;tr=udp%3A%2F%2Ftracker.openbittorrent.com%3A80&amp;tr=udp%3A%2F%2Fopen.demonii.com%3A1337&amp;tr=udp%3A%2F%2Ftracker.coppersurfer.tk%3A6969&amp;tr=udp%3A%2F%2Fexodus.desync.com%3A6969","seeders":3,"leechers":0,"uploader":"Gh0stNet","files":2,"time":1367271903,"description":"\tSource - Iron Man 3 2013 CAM READNFO XviD MP3 MiLLENiUM\n\nNOTES - Enjoy.\nGeneral\nComplete name                            : Iron Man 3 2013 CAM AAC x264-SSDD.mp4\nFormat                                   : MPEG-4\nFormat profile                           : Base Media\nCodec ID                                 : isom\nFile size                                : 550 MiB\nDuration                                 : 1h 58mn\nOverall bit rate mode                    : Variable\nOverall bit rate                         : 652 Kbps\n\nVideo\nID                                       : 1\nFormat                                   : AVC\nFormat/Info                              : Advanced Video Codec\nFormat profile                           : &lt;a class=&quot;__cf_email__&quot; href=&quot;/cdn-cgi/l/email-protection&quot; data-cfemail=&quot;3078595758707c041e01&quot;&gt;[email&amp;#160;protected]&lt;/a&gt;&lt;script data-cfhash='f9e31' type=&quot;text/javascript&quot;&gt;\n/* &lt;![CDATA[ */!function(){try{var t=&quot;currentScript&quot;in document?document.currentScript:function(){for(var t=document.getElementsByTagName(&quot;script&quot;),e=t.length;e--;)if(t[e].getAttribute(&quot;data-cfhash&quot;))return t[e]}();if(t&amp;&amp;t.previousSibling){var e,r,n,i,c=t.previousSibling,a=c.getAttribute(&quot;data-cfemail&quot;);if(a){for(e=&quot;&quot;,r=parseInt(a.substr(0,2),16),n=2;a.length-n;n+=2)i=parseInt(a.substr(n,2),16)^r,e+=String.fromCharCode(i);e=document.createTextNode(e),c.parentNode.replaceChild(e,c)}t.parentNode.removeChild(t);}}catch(u){}}()/* ]]&gt; */&lt;/script&gt;\nFormat settings, CABAC                   : Yes\nFormat settings, ReFrames                : 4 frames\nCodec ID                                 : avc1\nCodec ID/Info                            : Advanced Video Coding\nDuration                                 : 1h 58mn\nBit rate                                 : 584 Kbps\nMaximum bit rate                         : 1 657 Kbps\nWidth                                    : 720 pixels\nHeight                                   : 282 pixels\nDisplay aspect ratio                     : 2.553\nFrame rate mode                          : Constant\nFrame rate                               : 25.000 fps\nColor space                              : YUV\nChroma subsampling                       : 4:2:0\nBit depth                                : 8 bits\nScan type                                : Progressive\nBits/(Pixel*Frame)                       : 0.115\nStream size                              : 494 MiB (90%)\nWriting library                          : x264 core 130 r2273 b3065e6\n\nAudio\nID                                       : 2\nFormat                                   : AAC\nFormat/Info                              : Advanced Audio Codec\nFormat profile                           : LC\nCodec ID                                 : 40\nDuration                                 : 1h 58mn\nBit rate mode                            : Variable\nBit rate                                 : 64.0 Kbps\nMaximum bit rate                         : 70.6 Kbps\nChannel(s)                               : 2 channels\nChannel positions                        : Front: L R\nSampling rate                            : 44.1 KHz\nCompression mode                         : Lossy\nStream size                              : 54.1 MiB (10%)\n\nScreens:\n &lt;a href=&quot;\nhttp://i.imgur.com/YWWyAmj.png&quot; rel=&quot;nofollow&quot; target=&quot;_NEW&quot;&gt;\nhttp://i.imgur.com/YWWyAmj.png&lt;/a&gt; &lt;a href=&quot;\nhttp://i.imgur.com/iXPBRkl.png&quot; rel=&quot;nofollow&quot; target=&quot;_NEW&quot;&gt;\nhttp://i.imgur.com/iXPBRkl.png&lt;/a&gt; &lt;a href=&quot;\nhttp://i.imgur.com/kXkCMu6.png&quot; rel=&quot;nofollow&quot; target=&quot;_NEW&quot;&gt;\nhttp://i.imgur.com/kXkCMu6.png&lt;/a&gt; &lt;a href=&quot;\nhttp://i.imgur.com/xsQ6sPJ.png&quot; rel=&quot;nofollow&quot; target=&quot;_NEW&quot;&gt;\nhttp://i.imgur.com/xsQ6sPJ.png&lt;/a&gt;\n","torrent":{"xt":"urn:btih:3391cf41b25565ab9199630c8eda5053877f9957","amp;dn":"Iron+Man+3+2013+CAM+AAC+x264-SSDD","amp;tr":["udp%3A%2F%2Ftracker.openbittorrent.com%3A80","udp%3A%2F%2Fopen.demonii.com%3A1337","udp%3A%2F%2Ftracker.coppersurfer.tk%3A6969","udp%3A%2F%2Fexodus.desync.com%3A6969"],"infoHash":"3391cf41b25565ab9199630c8eda5053877f9957","infoHashBuffer":{"type":"Buffer","data":[51,145,207,65,178,85,101,171,145,153,99,12,142,218,80,83,135,127,153,87]},"announce":[],"urlList":[]}}